<?xml version="1.0" encoding="UTF-8" standalone="no"?>
<!-- Created with Inkscape (http://www.inkscape.org/) -->

<svg
   xmlns:dc="http://purl.org/dc/elements/1.1/"
   xmlns:cc="http://creativecommons.org/ns#"
   xmlns:rdf="http://www.w3.org/1999/02/22-rdf-syntax-ns#"
   xmlns:svg="http://www.w3.org/2000/svg"
   xmlns="http://www.w3.org/2000/svg"
   xmlns:sodipodi="http://sodipodi.sourceforge.net/DTD/sodipodi-0.dtd"
   xmlns:inkscape="http://www.inkscape.org/namespaces/inkscape"
   width="94.922073mm"
   height="94.61084mm"
   viewBox="0 0 336.33806 335.23526"
   id="svg3479"
   version="1.1"
   inkscape:version="0.91 r13725"
   sodipodi:docname="numbeo_icon2.svg">
  <defs
     id="defs3481">
    <clipPath
       clipPathUnits="userSpaceOnUse"
       id="clipPath3445">
      <rect
         style="fill:#0000ff;fill-rule:evenodd;stroke:#000000;stroke-width:0.80000001px;stroke-linecap:butt;stroke-linejoin:miter;stroke-opacity:1"
         id="rect3447"
         width="269.74649"
         height="270.42255"
         x="87.323944"
         y="-334.97693"
         transform="scale(1,-1)" />
    </clipPath>
    <clipPath
       clipPathUnits="userSpaceOnUse"
       id="clipPath3369">
      <path
         d="M 0,400 1200,400 1200,0 0,0 0,400 Z"
         id="path3371"
         inkscape:connector-curvature="0" />
    </clipPath>
  </defs>
  <sodipodi:namedview
     id="base"
     pagecolor="#ffffff"
     bordercolor="#666666"
     borderopacity="1.0"
     inkscape:pageopacity="0.0"
     inkscape:pageshadow="2"
     inkscape:zoom="0.35"
     inkscape:cx="188.88331"
     inkscape:cy="107.61763"
     inkscape:document-units="px"
     inkscape:current-layer="layer1"
     showgrid="false"
     fit-margin-top="0"
     fit-margin-left="0"
     fit-margin-right="0"
     fit-margin-bottom="0"
     inkscape:window-width="1920"
     inkscape:window-height="1137"
     inkscape:window-x="0"
     inkscape:window-y="27"
     inkscape:window-maximized="1" />
  <metadata
     id="metadata3484">
    <rdf:RDF>
      <cc:Work
         rdf:about="">
        <dc:format>image/svg+xml</dc:format>
        <dc:type
           rdf:resource="http://purl.org/dc/dcmitype/StillImage" />
        <dc:title></dc:title>
      </cc:Work>
    </rdf:RDF>
  </metadata>
  <g
     inkscape:label="Layer 1"
     inkscape:groupmode="layer"
     id="layer1"
     transform="translate(-186.11669,-304.74456)">
    <g
       transform="matrix(1.25,0,0,-1.25,76.116694,722.36294)"
       id="g3365"
       clip-path="url(#clipPath3445)">
      <g
         id="g3367"
         clip-path="url(#clipPath3369)">
        <g
           id="g3373"
           transform="translate(1084.896,186.3174)">
          <path
             d="m 0,0 c 0,-21.809 -16.166,-38.253 -37.604,-38.253 -21.283,0 -37.953,16.956 -37.953,38.6 l 0,0.343 c 0,21.807 16.164,38.253 37.599,38.253 C -16.674,38.943 0,21.989 0,0.347 L 0,0 Z m -37.604,62.203 c -36.482,0 -65.06,-27.168 -65.06,-61.856 l 0,-0.347 c 0,-35.068 27.816,-61.512 64.706,-61.512 36.483,0 65.062,27.17 65.062,61.859 l 0,0.343 c 0,35.069 -27.819,61.513 -64.708,61.513 m -139.568,-72.624 58.112,0 0,22.398 -58.112,0 0,25.758 66.037,0 0,22.398 -91.732,0 0,-119.575 92.612,0 0,22.397 -66.917,0 0,26.624 z m -62.679,-13.226 c 0,-8.99 -6.853,-13.743 -19.817,-13.743 l -32.85,0 0,27.829 31.968,0 c 17.11,0 20.699,-7.471 20.699,-13.738 l 0,-0.348 z m -52.667,61.729 27.393,0 c 11.697,0 18.408,-4.759 18.408,-13.054 l 0,-0.348 c 0,-6.11 -3.5,-13.396 -20.17,-13.396 l -25.631,0 0,26.798 z m 55.701,-35.559 -1.274,0.478 1.194,0.651 c 10.683,5.865 15.874,14.21 15.874,25.52 l 0,0.346 c 0,8.068 -2.704,14.644 -8.266,20.093 -7.023,6.884 -18.017,10.522 -31.788,10.522 l -56.607,0 0,-119.575 58.016,0 c 28.925,0 45.515,11.855 45.515,32.517 l 0,0.344 c 0,14.439 -6.779,23.144 -22.664,29.104 M -491.853,-8.458 c 0,-18.823 -9.918,-29.622 -27.213,-29.622 -17.296,0 -27.215,11.111 -27.215,30.483 l 0,67.73 -25.871,0 0,-68.418 c 0,-34.213 18.73,-53.054 52.735,-53.054 34.46,0 53.437,19.146 53.437,53.92 l 0,67.552 -25.873,0 0,-68.591 z m 99.763,16.962 -32.577,51.629 -28.264,0 0,-119.575 25.343,0 0,79.783 35.498,-55.396 35.481,55.914 0,-80.301 25.697,0 0,119.575 -28.269,0 -32.909,-51.629 z m -218.633,-23.958 -58.687,75.587 -24.077,0 0,-119.575 25.519,0 0,78.002 60.627,-78.002 22.14,0 0,119.575 -25.522,0 0,-75.587 z"
             style="fill:#003780;fill-opacity:1;fill-rule:nonzero;stroke:none"
             id="path3375"
             inkscape:connector-curvature="0" />
        </g>
        <g
           id="g3377"
           transform="translate(188.353,305.9897)">
          <path
             d="m 0,0 c 2.055,14.339 16.625,28.105 39.387,28.105 8.859,0 16.311,-1.125 24.674,-4.89 2.533,-1.14 0.822,-2.738 -0.3,-2.41 C 58.318,22.396 53.373,23.09 49.948,23.418 32.602,25.066 22.518,15.605 19.776,-2.49 19.715,-2.892 19.308,-4.197 18.181,-4.08 12.958,-3.537 6.662,-2.76 1.25,-2.012 -0.006,-1.839 -0.089,-0.615 0,0"
             style="fill:#20a4de;fill-opacity:1;fill-rule:nonzero;stroke:none"
             id="path3379"
             inkscape:connector-curvature="0" />
        </g>
        <g
           id="g3381"
           transform="translate(233.0601,324.0347)">
          <path
             d="m 0,0 c 15,-3.825 26.111,-13.147 28.014,-28.72 0.044,-0.361 0.218,-1.116 0.99,-1.202 6.966,-0.766 7.656,-0.84 13.75,-1.523 0.963,-0.105 1.251,0.928 1.207,1.28 C 42.051,-14.781 26.858,1.887 0.382,1.883 -1.511,1.883 -1.586,0.404 0,0"
             style="fill:#003780;fill-opacity:1;fill-rule:nonzero;stroke:none"
             id="path3383"
             inkscape:connector-curvature="0" />
        </g>
        <g
           id="g3385"
           transform="translate(338.874,278.2051)">
          <path
             d="m 0,0 c -31.107,4.026 -148.281,18.652 -188.61,21.958 -3.191,0.261 -6.213,-0.583 -8.89,-2.204 l 0,0.017 -38.723,-19.739 c -8.096,-4.126 -14.651,-6.305 -14.651,-16.676 l 0,-162.52 c 0,-10.805 4.886,-10.293 14.022,-14.389 10.02,-4.488 29.792,-13.048 37.503,-16.38 0.97,-0.516 1.983,-0.964 3.044,-1.313 0.09,-0.037 0.153,-0.066 0.153,-0.066 l 0,0.025 c 2.95,-0.945 6.189,-1.24 9.413,-0.834 57.96,7.331 145.104,21.016 186.739,27.951 7.916,1.322 14.086,2.713 14.086,14.187 l 0,158.19 C 14.086,-1.385 7.806,-1.009 0,0"
             style="fill:#003780;fill-opacity:1;fill-rule:nonzero;stroke:none"
             id="path3387"
             inkscape:connector-curvature="0" />
        </g>
        <g
           id="g3389"
           transform="translate(338.8369,248.1797)">
          <path
             d="m 0,0 c 0,8.38 -5.325,14.671 -11.937,15.529 -25.713,3.329 -125.489,14.918 -162.363,18.604 -9,0.904 -13.81,-7.7 -13.81,-17.66 l 0,-164.754 c 0,-9.831 6.411,-16.811 15.392,-15.942 38.128,3.702 131.327,18.079 160.781,23.688 C -5.259,-139.26 0,-132.246 0,-123.769 L 0,0 Z"
             style="fill:#20a4de;fill-opacity:1;fill-rule:nonzero;stroke:none"
             id="path3391"
             inkscape:connector-curvature="0" />
        </g>
        <g
           id="g3393"
           transform="translate(186.5371,185.0195)">
          <path
             d="m 0,0 c 0,-42.197 29.682,-75.551 67.287,-75.586 37.612,-0.052 67.292,33.245 67.292,75.453 0,42.197 -29.68,75.556 -67.292,75.592 C 29.682,75.505 0,42.213 0,0"
             style="fill:#ffffff;fill-opacity:1;fill-rule:evenodd;stroke:none"
             id="path3395"
             inkscape:connector-curvature="0" />
        </g>
        <g
           id="g3397"
           transform="translate(256.7925,213.3838)">
          <path
             d="m 0,0 c 6.736,0.436 14.449,2.653 21.969,6.197 3.557,-10.446 5.744,-20.885 6.134,-31.327 L 0,-25.099 0,0 Z m 28.103,-31.801 c -0.39,-9.993 -2.577,-20.654 -6.134,-31.315 -7.52,3.568 -15.233,5.797 -21.969,6.247 l 0,25.11 28.103,-0.042 z M 0,-63.759 c 6.34,-0.444 13.26,-2.008 19.994,-4.68 C 16.426,-78.435 11.679,-88.196 6.131,-96.416 3.963,-96.859 1.979,-97.076 0,-97.072 l 0,33.313 z M 25.334,14.186 C 22.372,22.64 18.405,30.859 14.053,37.532 23.357,34.859 31.664,29.508 38.59,22.395 35.027,19.507 30.476,16.631 25.334,14.186 m 8.708,-39.322 c -0.398,9.549 -2.771,21.548 -6.723,33.548 5.937,2.874 11.271,5.981 15.432,9.31 9.1,-11.334 14.641,-26.23 15.237,-42.89 l -23.946,0.032 z m 23.946,-6.695 c -0.596,-16.653 -6.137,-31.534 -15.237,-42.856 -4.161,3.341 -9.495,6.462 -15.432,9.352 4.15,11.988 6.527,24.202 6.723,33.534 l 23.946,-0.03 z m -32.85,-39.057 c 5.146,-2.452 9.691,-5.34 13.452,-8.454 -6.926,-7.103 -15.233,-12.425 -24.537,-14.862 4.556,6.888 8.319,14.874 11.085,23.316 M 0,40.203 c 1.979,0 3.963,-0.229 6.131,-0.661 C 11.48,31.309 16.426,21.969 20.182,11.746 13.662,9.097 6.535,7.324 0,6.896 l 0,33.307 z"
             style="fill:#20a4de;fill-opacity:1;fill-rule:nonzero;stroke:none"
             id="path3399"
             inkscape:connector-curvature="0" />
        </g>
        <g
           id="g3401"
           transform="translate(251.0342,238.7822)">
          <path
             d="m 0,0 -10.06,0 c 0,0 -4.453,-14.541 -16.009,-14.541 l 0,-7.285 13.382,0 0,-68.866 c 0,-10.255 -13.382,-10.162 -13.382,-10.162 l 0,-5.775 26.069,0 L 0,0 Z"
             style="fill:#003780;fill-opacity:1;fill-rule:evenodd;stroke:none"
             id="path3403"
             inkscape:connector-curvature="0" />
        </g>
      </g>
    </g>
  </g>
</svg>
