<?xml version="1.0" encoding="utf-8"?>
<!-- Generator: Adobe Illustrator 14.0.0, SVG Export Plug-In . SVG Version: 6.00 Build 43363)  -->
<!DOCTYPE svg PUBLIC "-//W3C//DTD SVG 1.1//EN" "http://www.w3.org/Graphics/SVG/1.1/DTD/svg11.dtd">
<svg version="1.1" id="Layer_1" xmlns="http://www.w3.org/2000/svg" xmlns:xlink="http://www.w3.org/1999/xlink" x="0px" y="0px"
	 width="869px" height="164.82px" viewBox="0 0 869 164.82" enable-background="new 0 0 869 164.82" xml:space="preserve">
<g>
	<path fill="#FFFFFF" d="M0.5,140.595l21.976-24.692c9.057,10.062,17.895,15.999,28.993,15.999c13.137,0,21.292-8,21.292-26.521
		V2.284h35.795v104.699c0,18.979-5.435,33.152-14.953,42.754c-9.741,9.826-24.01,14.857-41.227,14.857
		C27.683,164.595,11.374,153.625,0.5,140.595"/>
	<path fill="#FFFFFF" d="M155.118,93.728V2.284h34.888v90.523c0,26.062,12.913,39.553,34.206,39.553
		c21.292,0,34.205-13.03,34.205-38.409V2.284h34.888v90.3c0,48.47-26.958,72.233-69.547,72.233
		C181.172,164.818,155.118,140.819,155.118,93.728"/>
	<path fill="#FFFFFF" d="M325.215,138.993l20.613-24.919c14.271,11.89,29.224,19.429,47.344,19.429
		c14.273,0,22.883-5.714,22.883-15.082v-0.459c0-8.916-5.438-13.488-31.941-20.346c-31.939-8.236-52.554-17.148-52.554-48.923
		v-0.459C331.56,19.203,354.662,0,387.057,0c23.107,0,42.812,7.316,58.898,20.347l-18.126,26.515
		c-14.045-9.826-27.859-15.77-41.228-15.77c-13.362,0-20.384,6.169-20.384,13.944v0.454c0,10.52,6.793,13.949,34.205,21.036
		c32.165,8.458,50.29,20.111,50.29,48.011v0.446c0,31.785-24.018,49.611-58.222,49.611
		C368.482,164.595,344.243,156.136,325.215,138.993"/>
	<polygon fill="#FFFFFF" points="524.513,34.742 476.257,34.742 476.257,2.284 607.651,2.284 607.651,34.742 559.396,34.742 
		559.396,162.308 524.513,162.308 	"/>
	<rect x="635.954" y="2.284" fill="#FFFFFF" width="34.886" height="160.023"/>
	<path fill="#FFFFFF" d="M769.378,1.141h32.17L869.5,162.308h-36.465l-14.505-35.887h-67.053l-14.484,35.887h-35.565L769.378,1.141z
		 M806.078,95.33l-21.062-51.898L763.953,95.33H806.078z"/>
</g>
</svg>
