<svg width="270" height="270" xmlns="http://www.w3.org/2000/svg"><g id="simple" fill="none" fill-rule="evenodd"><g id="search" fill="#06357A" fill-rule="nonzero"><path d="M151.079 189.77c-43.937 22.411-97.684 8.661-125.46-32.096C-2.159 116.917 4.697 61.865 41.622 29.166c36.925-32.699 92.402-32.846 129.5-.343 37.098 32.503 44.246 87.518 16.686 128.422l68.664 68.664a15.989 15.989 0 0 1 0 23.083l-11.541 11.54a15.989 15.989 0 0 1-23.083 0l-70.77-70.761zm-44.486-21.985c36.053 0 65.28-29.226 65.28-65.279 0-36.052-29.227-65.278-65.28-65.278-36.052 0-65.278 29.226-65.278 65.278 0 36.05 29.22 65.274 65.27 65.279h.008z" id="Shape"/></g></g></svg>